<!-- Generated by IcoMoon.io -->
<svg version="1.1" xmlns="http://www.w3.org/2000/svg" width="32" height="32" viewBox="0 0 32 32">
<title>modal-tel</title>
<path d="M24.889 19.769l-3.271-0.356c-0.782-0.107-1.564 0.178-2.116 0.711l-2.364 2.382c-3.67-1.894-6.586-4.81-8.429-8.372l-0.051-0.108 2.382-2.382c0.551-0.551 0.818-1.333 0.729-2.116l-0.356-3.236c-0.156-1.288-1.243-2.276-2.56-2.276-0.006 0-0.012 0-0.019 0h-2.221c-1.458 0-2.667 1.209-2.578 2.667 0.716 10.991 9.453 19.729 20.38 20.441l0.065 0.003c1.458 0.089 2.667-1.12 2.667-2.578v-2.222c0-1.316-0.96-2.4-2.258-2.56z"></path>
</svg>
